<svg xmlns="http://www.w3.org/2000/svg" width="16" height="10" viewBox="0 0 16 10">
  <metadata><?xpacket begin="﻿" id="W5M0MpCehiHzreSzNTczkc9d"?>
<x:xmpmeta xmlns:x="adobe:ns:meta/" x:xmptk="Adobe XMP Core 5.6-c138 79.159824, 2016/09/14-01:09:01        ">
   <rdf:RDF xmlns:rdf="http://www.w3.org/1999/02/22-rdf-syntax-ns#">
      <rdf:Description rdf:about=""/>
   </rdf:RDF>
</x:xmpmeta>
                                                                                                    
                                                                                                    
                                                                                                    
                                                                                                    
                                                                                                    
                                                                                                    
                                                                                                    
                                                                                                    
                                                                                                    
                                                                                                    
                                                                                                    
                                                                                                    
                                                                                                    
                                                                                                    
                                                                                                    
                                                                                                    
                                                                                                    
                                                                                                    
                                                                                                    
                                                                                                    
                           
<?xpacket end="w"?></metadata>
<defs>
    <style>
      .cls-1 {
        fill: #fff;
        fill-rule: evenodd;
      }
    </style>
  </defs>
  <path id="Activity_1" data-name="Activity 1" class="cls-1" d="M27,345a1,1,0,0,1-.8-0.4l-2.152-2.869-1.216,1.824a1,1,0,0,1-1.664-1.109l2-3a1,1,0,0,1,.8-0.446,1.031,1.031,0,0,1,.827.4l2.029,2.705,2.276-4.553a1,1,0,0,1,.8-0.549,0.987,0.987,0,0,1,.89.4l2.029,2.705,2.276-4.553a1,1,0,0,1,1.789.895l-3,6a1,1,0,0,1-1.694.152l-2.029-2.7-2.276,4.553a1,1,0,0,1-.8.548C27.059,345,27.029,345,27,345Z" transform="translate(-21 -335)"/>
</svg>
