<svg xmlns="http://www.w3.org/2000/svg" width="16" height="16" viewBox="0 0 16 16">
  <metadata><?xpacket begin="﻿" id="W5M0MpCehiHzreSzNTczkc9d"?>
<x:xmpmeta xmlns:x="adobe:ns:meta/" x:xmptk="Adobe XMP Core 5.6-c138 79.159824, 2016/09/14-01:09:01        ">
   <rdf:RDF xmlns:rdf="http://www.w3.org/1999/02/22-rdf-syntax-ns#">
      <rdf:Description rdf:about=""/>
   </rdf:RDF>
</x:xmpmeta>
                                                                                                    
                                                                                                    
                                                                                                    
                                                                                                    
                                                                                                    
                                                                                                    
                                                                                                    
                                                                                                    
                                                                                                    
                                                                                                    
                                                                                                    
                                                                                                    
                                                                                                    
                                                                                                    
                                                                                                    
                                                                                                    
                                                                                                    
                                                                                                    
                                                                                                    
                                                                                                    
                           
<?xpacket end="w"?></metadata>
<defs>
    <style>
      .cls-1 {
        fill: #4f5f6f;
        fill-rule: evenodd;
      }
    </style>
  </defs>
  <path id="Bell" class="cls-1" d="M1343,29a4,4,0,0,1,4,4v4h-8V33a4,4,0,0,1,4-4m0-2h0a6,6,0,0,0-6,6v6h12V33a6,6,0,0,0-6-6h0Zm7,12h-14a1,1,0,0,1-1-1h0a1,1,0,0,1,1-1h14a1,1,0,0,1,1,1h0A1,1,0,0,1,1350,39Zm-7,4h0a2,2,0,0,1-2-2V40h4v1A2,2,0,0,1,1343,43Z" transform="translate(-1335 -27)"/>
</svg>
