<svg xmlns="http://www.w3.org/2000/svg" width="16" height="16" viewBox="0 0 16 16">
  <metadata><?xpacket begin="﻿" id="W5M0MpCehiHzreSzNTczkc9d"?>
<x:xmpmeta xmlns:x="adobe:ns:meta/" x:xmptk="Adobe XMP Core 5.6-c138 79.159824, 2016/09/14-01:09:01        ">
   <rdf:RDF xmlns:rdf="http://www.w3.org/1999/02/22-rdf-syntax-ns#">
      <rdf:Description rdf:about=""/>
   </rdf:RDF>
</x:xmpmeta>
                                                                                                    
                                                                                                    
                                                                                                    
                                                                                                    
                                                                                                    
                                                                                                    
                                                                                                    
                                                                                                    
                                                                                                    
                                                                                                    
                                                                                                    
                                                                                                    
                                                                                                    
                                                                                                    
                                                                                                    
                                                                                                    
                                                                                                    
                                                                                                    
                                                                                                    
                                                                                                    
                           
<?xpacket end="w"?></metadata>
<defs>
    <style>
      .cls-1 {
        fill: #fff;
        fill-rule: evenodd;
      }
    </style>
  </defs>
  <path id="Calendar" class="cls-1" d="M33,274v-1.01a0.99,0.99,0,0,0-.99-0.99H31.99a0.99,0.99,0,0,0-.99.99V274H27v-1.01a0.99,0.99,0,0,0-.99-0.99H25.99a0.99,0.99,0,0,0-.99.99V274H22a1,1,0,0,0-1,1v12a1,1,0,0,0,1,1H36a1,1,0,0,0,1-1V275a1,1,0,0,0-1-1H33Zm1.5,12h-11a0.5,0.5,0,0,1-.5-0.5v-9a0.5,0.5,0,0,1,.5-0.5h11a0.5,0.5,0,0,1,.5.5v9A0.5,0.5,0,0,1,34.5,286Zm-3-4H30v-3.5a0.5,0.5,0,0,0-.5-0.5h-3a0.5,0.5,0,0,0-.5.5v1a0.5,0.5,0,0,0,.5.5H28v2H26.5a0.5,0.5,0,0,0-.5.5v1a0.5,0.5,0,0,0,.5.5h5a0.5,0.5,0,0,0,.5-0.5v-1A0.5,0.5,0,0,0,31.5,282Zm5.5-6H21v-3a1,1,0,0,1,1-1H36a1,1,0,0,1,1,1v3Z" transform="translate(-21 -272)"/>
</svg>
