<svg xmlns="http://www.w3.org/2000/svg" width="16" height="15" viewBox="0 0 16 15" >
  <metadata><?xpacket begin="﻿" id="W5M0MpCehiHzreSzNTczkc9d"?>
<x:xmpmeta xmlns:x="adobe:ns:meta/" x:xmptk="Adobe XMP Core 5.6-c138 79.159824, 2016/09/14-01:09:01        ">
   <rdf:RDF xmlns:rdf="http://www.w3.org/1999/02/22-rdf-syntax-ns#">
      <rdf:Description rdf:about=""/>
   </rdf:RDF>
</x:xmpmeta>




                                                                                                    
                                                                                                    
                                                                                                    
                                                                                                    
                                                                                                    
                                                                                                    
                                                                                                    
                                                                                                    
                                                                                                    
                                                                                                    
                                                                                                    
                                                                                                    
                                                                                                    
                                                                                                    
                                                                                                    
                                                                                                    
                           
<?xpacket end="w"?></metadata>
<defs>
    <style>
      .cls-1 {
        fill: #fff;
        fill-rule: evenodd;
      }
    </style>
  </defs>
  <path id="Dashboard" class="cls-1" d="M29,93a8.227,8.227,0,0,0-8,8.437,0.89,0.89,0,1,0,1.778,0A6.406,6.406,0,0,1,29,94.875a6.406,6.406,0,0,1,6.222,6.562,0.89,0.89,0,1,0,1.778,0A8.227,8.227,0,0,0,29,93Zm0,9.375a1.878,1.878,0,1,1-1.778,1.875A1.83,1.83,0,0,1,29,102.375m0-1.875a3.755,3.755,0,1,0,3.555,3.75A3.657,3.657,0,0,0,29,100.5h0Zm0-3.75h0a0.914,0.914,0,0,0-.889.938v4.278h1.778V97.687A0.914,0.914,0,0,0,29,96.75Z" transform="translate(-21 -93)"/>
</svg>
