<svg xmlns="http://www.w3.org/2000/svg" width="16" height="14" viewBox="0 0 16 14">
  <metadata><?xpacket begin="﻿" id="W5M0MpCehiHzreSzNTczkc9d"?>
<x:xmpmeta xmlns:x="adobe:ns:meta/" x:xmptk="Adobe XMP Core 5.6-c138 79.159824, 2016/09/14-01:09:01        ">
   <rdf:RDF xmlns:rdf="http://www.w3.org/1999/02/22-rdf-syntax-ns#">
      <rdf:Description rdf:about=""/>
   </rdf:RDF>
</x:xmpmeta>
                                                                                                    
                                                                                                    
                                                                                                    
                                                                                                    
                                                                                                    
                                                                                                    
                                                                                                    
                                                                                                    
                                                                                                    
                                                                                                    
                                                                                                    
                                                                                                    
                                                                                                    
                                                                                                    
                                                                                                    
                                                                                                    
                                                                                                    
                                                                                                    
                                                                                                    
                                                                                                    
                           
<?xpacket end="w"?></metadata>
<defs>
    <style>
      .cls-1 {
        fill: #fff;
        fill-rule: evenodd;
        opacity: 0.5;
      }
    </style>
  </defs>
  <path id="Box" class="cls-1" d="M33.444,213.875A0.882,0.882,0,0,0,32.556,213H25.444a0.882,0.882,0,0,0-.889.875L21,220v6.125a0.882,0.882,0,0,0,.889.875H36.111A0.882,0.882,0,0,0,37,226.125V220Zm-7.349.875H31.9l2.54,4.375H31.222a0.441,0.441,0,0,0-.444.437v0.36a1.812,1.812,0,0,1-1.6,1.819A1.768,1.768,0,0,1,27.222,220v-0.438a0.441,0.441,0,0,0-.444-0.437H23.556Zm8.683,10.5H23.222a0.441,0.441,0,0,1-.445-0.438v-3.937h2.783a3.565,3.565,0,0,0,6.878,0h2.783v3.937A0.441,0.441,0,0,1,34.778,225.25Z" transform="translate(-21 -213)"/>
</svg>
