<svg xmlns="http://www.w3.org/2000/svg" width="16" height="16" viewBox="0 0 16 16">
  <metadata><?xpacket begin="﻿" id="W5M0MpCehiHzreSzNTczkc9d"?>
<x:xmpmeta xmlns:x="adobe:ns:meta/" x:xmptk="Adobe XMP Core 5.6-c138 79.159824, 2016/09/14-01:09:01        ">
   <rdf:RDF xmlns:rdf="http://www.w3.org/1999/02/22-rdf-syntax-ns#">
      <rdf:Description rdf:about=""/>
   </rdf:RDF>
</x:xmpmeta>
                                                                                                    
                                                                                                    
                                                                                                    
                                                                                                    
                                                                                                    
                                                                                                    
                                                                                                    
                                                                                                    
                                                                                                    
                                                                                                    
                                                                                                    
                                                                                                    
                                                                                                    
                                                                                                    
                                                                                                    
                                                                                                    
                                                                                                    
                                                                                                    
                                                                                                    
                                                                                                    
                           
<?xpacket end="w"?></metadata>
<defs>
    <style>
      .cls-1 {
        fill: #fff;
        fill-rule: evenodd;
        opacity: 0.5;
      }
    </style>
  </defs>
  <path id="Cogwheel" class="cls-1" d="M36.164,398.861l-1.325-.221a5.966,5.966,0,0,0-.762-1.827l0.738-1.033a0.99,0.99,0,0,0-.106-1.276L34.5,394.29a0.991,0.991,0,0,0-1.276-.106l-1.033.739a5.94,5.94,0,0,0-1.826-.762l-0.221-1.326A1,1,0,0,0,29.153,392H28.847a1,1,0,0,0-.986.835l-0.221,1.326a5.941,5.941,0,0,0-1.826.762l-1.033-.739a0.991,0.991,0,0,0-1.276.106l-0.214.214a0.99,0.99,0,0,0-.106,1.276l0.738,1.033a5.969,5.969,0,0,0-.762,1.827l-1.325.221a1,1,0,0,0-.835.986v0.306a1,1,0,0,0,.835.986l1.325,0.221a5.953,5.953,0,0,0,.762,1.826l-0.738,1.034a0.99,0.99,0,0,0,.106,1.276L23.5,405.71a0.99,0.99,0,0,0,1.276.105l1.033-.738a5.941,5.941,0,0,0,1.826.762l0.221,1.325a1,1,0,0,0,.986.836h0.306a1,1,0,0,0,.986-0.836l0.221-1.325a5.94,5.94,0,0,0,1.826-.762l1.033,0.738a0.99,0.99,0,0,0,1.276-.105l0.214-.214a0.991,0.991,0,0,0,.106-1.276l-0.738-1.034a5.95,5.95,0,0,0,.762-1.826l1.325-.221A1,1,0,0,0,37,400.153v-0.306A1,1,0,0,0,36.164,398.861ZM29,403a3,3,0,1,1,3-3A3,3,0,0,1,29,403Z" transform="translate(-21 -392)"/>
</svg>
