<svg xmlns="http://www.w3.org/2000/svg" width="16" height="16" viewBox="0 0 16 16">
  <metadata><?xpacket begin="﻿" id="W5M0MpCehiHzreSzNTczkc9d"?>
<x:xmpmeta xmlns:x="adobe:ns:meta/" x:xmptk="Adobe XMP Core 5.6-c138 79.159824, 2016/09/14-01:09:01        ">
   <rdf:RDF xmlns:rdf="http://www.w3.org/1999/02/22-rdf-syntax-ns#">
      <rdf:Description rdf:about=""/>
   </rdf:RDF>
</x:xmpmeta>
                                                                                                    
                                                                                                    
                                                                                                    
                                                                                                    
                                                                                                    
                                                                                                    
                                                                                                    
                                                                                                    
                                                                                                    
                                                                                                    
                                                                                                    
                                                                                                    
                                                                                                    
                                                                                                    
                                                                                                    
                                                                                                    
                                                                                                    
                                                                                                    
                                                                                                    
                                                                                                    
                           
<?xpacket end="w"?></metadata>
<defs>
    <style>
      .cls-1 {
        fill: #fff;
        fill-rule: evenodd;
      }
    </style>
  </defs>
  <path id="Clock" class="cls-1" d="M29,152a8,8,0,1,0,8,8A8,8,0,0,0,29,152Zm0,14a6,6,0,1,1,6-6A6.007,6.007,0,0,1,29,166Zm2.01-6H29.5a0.5,0.5,0,0,1-.5-0.5v-1.51a0.99,0.99,0,0,0-.99-0.99H27.99a0.99,0.99,0,0,0-.99.99v3.02a0.99,0.99,0,0,0,.99.99h3.02a0.99,0.99,0,0,0,.99-0.99v-0.02A0.99,0.99,0,0,0,31.01,160Z" transform="translate(-21 -152)"/>
</svg>
